<svg width="252" height="100" viewBox="0 0 252 100" fill="none" xmlns="http://www.w3.org/2000/svg">
<g clip-path="url(#clip0_187_59)">
<path d="M158.395 89.4043C140.824 89.4043 140.824 68.4802 123.251 68.4802C105.679 68.4802 105.67 89.4043 88.0924 89.4043C70.5146 89.4043 70.5196 68.4802 52.9467 68.4802C35.3605 68.4802 35.3605 89.4043 17.7768 89.4043C0.193124 89.4043 0.190625 68.4802 -17.3931 68.4802" stroke="#FF7B42" stroke-width="3.863" stroke-linecap="round" stroke-linejoin="round"/>
<path d="M158.395 60.4612C140.824 60.4612 140.824 39.5396 123.251 39.5396C105.679 39.5396 105.67 60.4612 88.0924 60.4612C70.5145 60.4612 70.5196 39.5396 52.9467 39.5396C35.3605 39.5396 35.3605 60.4612 17.7768 60.4612C0.193106 60.4612 0.18977 39.5396 -17.3939 39.5396" stroke="#FF7B42" stroke-width="3.863" stroke-linecap="round" stroke-linejoin="round"/>
<path d="M158.395 31.5206C140.824 31.5206 140.824 10.5965 123.252 10.5965C105.679 10.5965 105.67 31.5206 88.0925 31.5206C70.5146 31.5206 70.5196 10.5965 52.9468 10.5965C35.3606 10.5965 35.3606 31.5206 17.7769 31.5206C0.193185 31.5206 0.190686 10.5965 -17.393 10.5965" stroke="#FF7B42" stroke-width="3.863" stroke-linecap="round" stroke-linejoin="round"/>
</g>
<g clip-path="url(#clip1_187_59)">
<path d="M211.443 99.6625C211.3 99.7759 211.153 99.888 211.003 100H193.925C193.784 99.8908 193.646 99.7788 193.507 99.6625C193.502 99.6582 193.496 99.6525 193.49 99.6483C191.635 98.0911 190.467 95.8277 189.738 93.4408C189.692 93.2962 189.651 93.1501 189.609 93.0026C189.418 92.3318 189.263 91.6539 189.136 90.9817C189.113 90.8654 189.091 90.7491 189.072 90.6328C188.9 89.667 188.784 88.7168 188.709 87.8248C188.699 87.7099 188.69 87.5979 188.681 87.4858C188.544 85.7099 188.542 83.9294 188.677 82.1534C188.677 82.1534 188.699 82.1534 188.743 82.1548C188.868 82.1591 189.169 82.169 189.613 82.1889C190.836 82.2456 193.142 82.3874 195.855 82.7221C196.003 82.7405 196.153 82.7604 196.302 82.7802C198.597 83.0674 200.86 83.4827 203.074 84.0226C203.213 84.058 203.349 84.0935 203.488 84.1289L203.49 84.136L205.188 90.5903L205.892 84.8451C206.452 85.0366 206.996 85.2408 207.519 85.4592C207.665 85.5202 207.807 85.5812 207.947 85.6436C209.142 86.1562 210.226 86.8037 211.162 87.5638C216.732 92.2396 215.539 96.4191 211.443 99.6625Z" fill="#F2F2F2"/>
<path d="M204.306 91.4783L204.602 91.7268C208.024 94.6282 210.067 97.3213 210.696 99.7707C210.706 99.8063 210.713 99.8418 210.723 99.8773L210.504 99.9088L210.293 99.9369C209.651 97.2664 207.26 94.5059 204.275 91.9746C204.18 91.8923 204.084 91.8088 203.984 91.7275C202.708 90.6644 201.337 89.6446 199.95 88.691C199.843 88.6164 199.734 88.5418 199.624 88.4672C197.785 87.2157 195.935 86.0834 194.285 85.129C194.168 85.0612 194.05 84.9944 193.934 84.9289C191.132 83.3222 188.958 82.2572 188.474 82.0237C188.415 81.9944 188.382 81.9791 188.375 81.9753L188.49 81.8366L188.49 81.8342L188.606 81.6944C188.614 81.6982 188.725 81.7495 188.926 81.8488C189.68 82.217 191.707 83.2306 194.229 84.6716C194.342 84.737 194.46 84.8038 194.576 84.8716C195.916 85.6451 197.382 86.5313 198.862 87.5014C199.235 87.7446 199.598 87.9875 199.951 88.2299C200.063 88.3035 200.172 88.3781 200.279 88.4526C201.778 89.4833 203.121 90.4919 204.306 91.4783Z" fill="white"/>
<path d="M196.016 82.447C195.966 82.5391 195.911 82.6313 195.855 82.7221C195.427 83.4231 194.88 84.0787 194.228 84.6721C194.133 84.7572 194.035 84.8437 193.934 84.9288C193.661 85.1571 193.37 85.3779 193.062 85.5911C191.8 86.4561 190.305 87.1027 188.681 87.4858C188.628 87.4986 188.578 87.5114 188.525 87.5227C188.535 87.6347 188.544 87.7454 188.553 87.8602C188.606 87.8489 188.656 87.8375 188.709 87.8248C190.433 87.4311 192.019 86.7519 193.354 85.8365C193.68 85.6131 193.991 85.3769 194.284 85.1288C194.385 85.0451 194.483 84.9586 194.576 84.8721C195.274 84.2371 195.855 83.5334 196.302 82.7802C196.355 82.6895 196.407 82.5987 196.458 82.5065C196.308 82.4867 196.16 82.4668 196.016 82.447Z" fill="white"/>
<path d="M203.151 83.7716C203.128 83.8552 203.102 83.9389 203.074 84.0226C202.566 85.6168 201.486 87.0733 199.951 88.2304C199.845 88.3112 199.736 88.3906 199.624 88.4672C199.592 88.4913 199.556 88.5168 199.523 88.5395C198.127 89.494 196.45 90.1819 194.632 90.546C192.814 90.9102 190.908 90.9399 189.072 90.6328C189.029 90.6271 188.984 90.6186 188.941 90.6115C188.963 90.7278 188.984 90.8455 189.008 90.9618C189.051 90.9689 189.093 90.976 189.136 90.9817C191.018 91.2767 192.966 91.2316 194.822 90.8499C196.677 90.4682 198.387 89.7608 199.815 88.7849C199.86 88.7537 199.906 88.7239 199.949 88.6913C200.062 88.6119 200.17 88.5324 200.279 88.453C201.849 87.2629 202.959 85.77 203.49 84.1361C203.518 84.051 203.544 83.9659 203.568 83.8808C203.43 83.8439 203.291 83.807 203.151 83.7716Z" fill="white"/>
<path d="M207.519 85.2195C207.521 85.299 207.521 85.3798 207.519 85.4592C207.487 87.7005 206.34 89.8502 204.306 91.478C204.201 91.5631 204.093 91.6454 203.984 91.7277C203.866 91.8142 203.748 91.9007 203.626 91.9829C201.743 93.2688 199.364 94.062 196.84 94.2456C194.316 94.4292 191.781 93.9934 189.609 93.0026C189.572 92.9879 189.536 92.9718 189.501 92.9544C189.546 93.1047 189.591 93.2522 189.639 93.3997C189.673 93.4139 189.705 93.4281 189.739 93.4408C191.973 94.3848 194.542 94.7756 197.085 94.5584C199.628 94.3412 202.017 93.527 203.918 92.2297C204.04 92.146 204.162 92.0623 204.276 91.9744C204.388 91.8936 204.495 91.8113 204.602 91.7262C206.665 90.0783 207.855 87.9134 207.947 85.6436C207.951 85.567 207.953 85.4904 207.953 85.4138C207.811 85.3472 207.665 85.2834 207.519 85.2195Z" fill="white"/>
<path d="M169.67 23.4823H136.759C136.485 23.482 136.223 23.3995 136.029 23.2528C135.835 23.1061 135.727 22.9072 135.726 22.6998V3.77035C135.726 3.56288 135.835 3.36397 136.029 3.21726C136.223 3.07056 136.485 2.98802 136.759 2.98778H177.155C177.429 2.98802 177.691 3.07056 177.885 3.21726C178.079 3.36397 178.188 3.56288 178.188 3.77035V17.0295C178.185 18.7403 177.287 20.3804 175.69 21.5901C174.093 22.7999 171.928 23.4803 169.67 23.4823Z" fill="white"/>
<path d="M169.67 23.5532H136.759C136.46 23.5529 136.174 23.4629 135.963 23.3029C135.752 23.1429 135.633 22.926 135.633 22.6998V3.77035C135.633 3.54408 135.752 3.32715 135.963 3.16715C136.174 3.00715 136.46 2.91714 136.759 2.91687H177.155C177.454 2.91713 177.74 3.00714 177.951 3.16714C178.163 3.32714 178.281 3.54408 178.282 3.77035V17.0295C178.279 18.7591 177.371 20.4172 175.756 21.6403C174.142 22.8633 171.953 23.5512 169.67 23.5532ZM136.759 3.20051C136.56 3.20069 136.369 3.26079 136.228 3.36762C136.087 3.47445 136.007 3.61928 136.007 3.77035V22.6998C136.007 22.8508 136.087 22.9956 136.228 23.1025C136.369 23.2093 136.56 23.2694 136.759 23.2695H169.67C171.854 23.2677 173.947 22.6096 175.492 21.4398C177.036 20.27 177.905 18.6839 177.907 17.0295V3.77035C177.907 3.61928 177.828 3.47445 177.687 3.36762C177.546 3.26079 177.354 3.20069 177.155 3.20051H136.759Z" fill="#CCCCCC"/>
<path d="M169.17 9.38059H144.744C144.52 9.38059 144.305 9.31312 144.147 9.193C143.988 9.07289 143.899 8.90999 143.899 8.74012C143.899 8.57026 143.988 8.40735 144.147 8.28724C144.305 8.16713 144.52 8.09966 144.744 8.09966H169.17C169.394 8.09991 169.609 8.1675 169.767 8.28758C169.925 8.40766 170.014 8.57043 170.014 8.74012C170.014 8.90982 169.925 9.07258 169.767 9.19267C169.609 9.31275 169.394 9.38034 169.17 9.38059Z" fill="#CCCCCC"/>
<path d="M169.17 13.7927H144.744C144.52 13.7927 144.305 13.7252 144.147 13.6051C143.988 13.485 143.899 13.3221 143.899 13.1522C143.899 12.9824 143.988 12.8195 144.147 12.6994C144.305 12.5793 144.52 12.5118 144.744 12.5118H169.17C169.394 12.5118 169.609 12.5793 169.768 12.6994C169.926 12.8195 170.015 12.9824 170.015 13.1522C170.015 13.3221 169.926 13.485 169.768 13.6051C169.609 13.7252 169.394 13.7927 169.17 13.7927Z" fill="#CCCCCC"/>
<path d="M169.17 18.3309H144.744C144.52 18.3309 144.305 18.2635 144.147 18.1434C143.988 18.0232 143.899 17.8603 143.899 17.6905C143.899 17.5206 143.988 17.3577 144.147 17.2376C144.305 17.1175 144.52 17.05 144.744 17.05H169.17C169.394 17.05 169.609 17.1175 169.768 17.2376C169.926 17.3577 170.015 17.5206 170.015 17.6905C170.015 17.8603 169.926 18.0232 169.768 18.1434C169.609 18.2635 169.394 18.3309 169.17 18.3309Z" fill="#CCCCCC"/>
<path d="M176.852 7.64933C179.64 7.64933 181.901 5.93697 181.901 3.82467C181.901 1.71236 179.64 0 176.852 0C174.063 0 171.803 1.71236 171.803 3.82467C171.803 5.93697 174.063 7.64933 176.852 7.64933Z" fill="#2A2962"/>
<path d="M176.163 5.81522C176.076 5.81522 175.99 5.79984 175.912 5.7703C175.834 5.74075 175.766 5.69786 175.714 5.64501L174.336 4.25375C174.292 4.20906 174.26 4.1582 174.241 4.10408C174.223 4.04995 174.219 3.99363 174.23 3.93833C174.24 3.88302 174.265 3.82981 174.302 3.78174C174.34 3.73367 174.39 3.69167 174.449 3.65815C174.508 3.62463 174.575 3.60024 174.646 3.58638C174.718 3.57252 174.792 3.56945 174.865 3.57735C174.938 3.58525 175.008 3.60397 175.072 3.63244C175.135 3.6609 175.191 3.69856 175.235 3.74326L176.136 4.65338L178.451 2.02348C178.533 1.9296 178.662 1.86442 178.808 1.84229C178.954 1.82016 179.105 1.8429 179.229 1.90549C179.353 1.96808 179.439 2.0654 179.469 2.17604C179.498 2.28669 179.468 2.40159 179.385 2.49548L176.63 5.62576C176.58 5.68237 176.513 5.72911 176.435 5.76205C176.356 5.79499 176.268 5.81318 176.179 5.81509C176.173 5.81516 176.168 5.81522 176.163 5.81522Z" fill="white"/>
<path d="M157.522 39.9233H124.612C122.354 39.9214 120.188 39.2409 118.591 38.0312C116.994 36.8215 116.096 35.1813 116.094 33.4705V20.2113C116.094 20.0039 116.203 19.8049 116.397 19.6582C116.59 19.5115 116.853 19.429 117.127 19.4288H157.522C157.796 19.429 158.059 19.5115 158.253 19.6582C158.446 19.8049 158.555 20.0039 158.556 20.2113V39.1407C158.555 39.3482 158.446 39.5471 158.253 39.6938C158.059 39.8405 157.796 39.9231 157.522 39.9233Z" fill="white"/>
<path d="M157.522 39.9942H124.612C122.329 39.9923 120.14 39.3043 118.525 38.0813C116.911 36.8583 116.003 35.2001 116 33.4705V20.2113C116 19.9851 116.119 19.7681 116.33 19.6081C116.542 19.4481 116.828 19.3581 117.127 19.3578H157.522C157.821 19.3581 158.108 19.4481 158.319 19.6081C158.53 19.7681 158.649 19.9851 158.649 20.2113V39.1407C158.649 39.367 158.53 39.584 158.319 39.744C158.108 39.904 157.821 39.994 157.522 39.9942ZM117.127 19.6415C116.927 19.6417 116.736 19.7018 116.595 19.8086C116.454 19.9154 116.375 20.0603 116.374 20.2113V33.4705C116.377 35.1249 117.246 36.711 118.79 37.8808C120.334 39.0507 122.428 39.7087 124.612 39.7106H157.522C157.722 39.7104 157.913 39.6503 158.054 39.5435C158.195 39.4367 158.274 39.2918 158.275 39.1407V20.2113C158.274 20.0603 158.195 19.9154 158.054 19.8086C157.913 19.7018 157.722 19.6417 157.522 19.6415H117.127Z" fill="#CCCCCC"/>
<path d="M149.537 25.8216H125.112C124.888 25.8216 124.673 25.7541 124.514 25.634C124.355 25.5139 124.266 25.351 124.266 25.1811C124.266 25.0113 124.355 24.8484 124.514 24.7282C124.673 24.6081 124.888 24.5406 125.112 24.5406H149.537C149.761 24.5406 149.977 24.6081 150.135 24.7282C150.294 24.8484 150.383 25.0113 150.383 25.1811C150.383 25.351 150.294 25.5139 150.135 25.634C149.977 25.7541 149.761 25.8216 149.537 25.8216Z" fill="#CCCCCC"/>
<path d="M149.537 30.2337H125.112C124.888 30.2337 124.673 30.1662 124.514 30.0461C124.355 29.926 124.266 29.7631 124.266 29.5932C124.266 29.4234 124.355 29.2605 124.514 29.1403C124.673 29.0202 124.888 28.9528 125.112 28.9528H149.537C149.761 28.9528 149.977 29.0202 150.135 29.1403C150.294 29.2605 150.383 29.4234 150.383 29.5932C150.383 29.7631 150.294 29.926 150.135 30.0461C149.977 30.1662 149.761 30.2337 149.537 30.2337Z" fill="#CCCCCC"/>
<path d="M149.537 34.7719H125.112C124.888 34.7719 124.673 34.7045 124.514 34.5844C124.355 34.4642 124.266 34.3013 124.266 34.1315C124.266 33.9616 124.355 33.7987 124.514 33.6786C124.673 33.5585 124.888 33.491 125.112 33.491H149.537C149.761 33.491 149.977 33.5585 150.135 33.6786C150.294 33.7987 150.383 33.9616 150.383 34.1315C150.383 34.3013 150.294 34.4642 150.135 34.5844C149.977 34.7045 149.761 34.7719 149.537 34.7719Z" fill="#CCCCCC"/>
<path d="M157.568 24.2422C160.357 24.2422 162.617 22.5299 162.617 20.4176C162.617 18.3053 160.357 16.5929 157.568 16.5929C154.78 16.5929 152.519 18.3053 152.519 20.4176C152.519 22.5299 154.78 24.2422 157.568 24.2422Z" fill="#2A2962"/>
<path d="M156.879 22.4081C156.792 22.4081 156.706 22.3928 156.628 22.3632C156.55 22.3337 156.482 22.2908 156.43 22.2379L155.053 20.8467C155.008 20.802 154.976 20.7511 154.958 20.697C154.94 20.6429 154.936 20.5865 154.946 20.5312C154.957 20.4759 154.981 20.4227 155.019 20.3747C155.056 20.3266 155.106 20.2846 155.165 20.2511C155.224 20.2175 155.291 20.1932 155.363 20.1793C155.434 20.1654 155.508 20.1624 155.581 20.1703C155.655 20.1782 155.725 20.1969 155.788 20.2254C155.852 20.2538 155.907 20.2915 155.951 20.3362L156.853 21.2463L159.167 18.6164C159.25 18.5225 159.378 18.4573 159.524 18.4352C159.67 18.4131 159.822 18.4358 159.946 18.4984C160.07 18.561 160.156 18.6583 160.185 18.769C160.214 18.8796 160.184 18.9945 160.102 19.0884L157.347 22.2187C157.297 22.2753 157.23 22.322 157.151 22.355C157.073 22.3879 156.985 22.4061 156.895 22.408C156.89 22.4081 156.885 22.4081 156.879 22.4081Z" fill="white"/>
<path d="M198.528 57.5675H152.479C150.22 57.5656 148.055 56.8851 146.458 55.6754C144.861 54.4657 143.963 52.8255 143.96 51.1147V31.6126C143.961 31.3451 144.101 31.0888 144.351 30.8996C144.601 30.7105 144.939 30.6042 145.292 30.6039H198.528C198.881 30.6042 199.219 30.7105 199.469 30.8997C199.719 31.0888 199.859 31.3452 199.86 31.6126V56.5587C199.859 56.8262 199.719 57.0826 199.469 57.2717C199.219 57.4608 198.881 57.5672 198.528 57.5675Z" fill="white"/>
<path d="M198.528 57.6385H152.479C150.196 57.6365 148.007 56.9485 146.392 55.7255C144.778 54.5025 143.869 52.8443 143.867 51.1148V31.6126C143.867 31.3263 144.018 31.0519 144.285 30.8495C144.552 30.6471 144.914 30.5333 145.292 30.5329H198.528C198.906 30.5333 199.268 30.6471 199.535 30.8495C199.802 31.0519 199.953 31.3264 199.953 31.6126V56.5588C199.953 56.845 199.802 57.1194 199.535 57.3218C199.268 57.5243 198.906 57.6381 198.528 57.6385ZM145.292 30.8166C145.013 30.8168 144.746 30.9008 144.549 31.05C144.352 31.1992 144.242 31.4016 144.241 31.6126V51.1148C144.244 52.7691 145.112 54.3553 146.657 55.5251C148.201 56.6949 150.295 57.353 152.479 57.3548H198.528C198.807 57.3546 199.074 57.2706 199.271 57.1214C199.468 56.9721 199.578 56.7698 199.579 56.5588V31.6126C199.578 31.4016 199.468 31.1992 199.271 31.05C199.074 30.9008 198.807 30.8168 198.528 30.8166H145.292Z" fill="#CCCCCC"/>
<path d="M188.005 39.0061H155.815C155.669 39.0062 155.524 38.9845 155.389 38.9421C155.253 38.8998 155.13 38.8376 155.027 38.7592C154.923 38.6809 154.841 38.5878 154.785 38.4853C154.729 38.3828 154.7 38.273 154.7 38.162C154.7 38.0511 154.729 37.9412 154.785 37.8388C154.841 37.7363 154.923 37.6432 155.027 37.5648C155.13 37.4864 155.253 37.4243 155.389 37.3819C155.524 37.3396 155.669 37.3178 155.815 37.318H188.005C188.151 37.3178 188.296 37.3396 188.431 37.3819C188.567 37.4243 188.69 37.4864 188.793 37.5648C188.897 37.6432 188.979 37.7363 189.035 37.8388C189.091 37.9412 189.12 38.0511 189.12 38.162C189.12 38.273 189.091 38.3828 189.035 38.4853C188.979 38.5878 188.897 38.6809 188.793 38.7592C188.69 38.8376 188.567 38.8998 188.431 38.9421C188.296 38.9845 188.151 39.0062 188.005 39.0061Z" fill="#CCCCCC"/>
<path d="M188.005 44.8206H155.815C155.669 44.8208 155.524 44.799 155.389 44.7567C155.253 44.7143 155.13 44.6522 155.027 44.5738C154.923 44.4954 154.841 44.4023 154.785 44.2998C154.729 44.1973 154.7 44.0875 154.7 43.9766C154.7 43.8656 154.729 43.7558 154.785 43.6533C154.841 43.5508 154.923 43.4577 155.027 43.3793C155.13 43.301 155.253 43.2388 155.389 43.1965C155.524 43.1541 155.669 43.1324 155.815 43.1325H188.005C188.3 43.1325 188.583 43.2214 188.792 43.3797C189.001 43.538 189.119 43.7527 189.119 43.9766C189.119 44.2004 189.001 44.4151 188.792 44.5734C188.583 44.7317 188.3 44.8206 188.005 44.8206Z" fill="#CCCCCC"/>
<path d="M188.005 50.8013H155.815C155.52 50.8013 155.236 50.7124 155.028 50.5541C154.819 50.3958 154.701 50.1812 154.701 49.9573C154.701 49.7334 154.819 49.5188 155.028 49.3605C155.236 49.2022 155.52 49.1133 155.815 49.1133H188.005C188.151 49.1131 188.296 49.1348 188.431 49.1772C188.567 49.2195 188.69 49.2817 188.793 49.3601C188.897 49.4385 188.979 49.5316 189.035 49.634C189.091 49.7365 189.12 49.8464 189.12 49.9573C189.12 50.0682 189.091 50.1781 189.035 50.2806C188.979 50.383 188.897 50.4761 188.793 50.5545C188.69 50.6329 188.567 50.6951 188.431 50.7374C188.296 50.7798 188.151 50.8015 188.005 50.8013Z" fill="#CCCCCC"/>
<path d="M198.695 36.9721C202.225 36.9721 205.087 34.8045 205.087 32.1306C205.087 29.4566 202.225 27.289 198.695 27.289C195.165 27.289 192.304 29.4566 192.304 32.1306C192.304 34.8045 195.165 36.9721 198.695 36.9721Z" fill="#2A2962"/>
<path d="M197.823 34.6504C197.713 34.6504 197.604 34.6309 197.505 34.5935C197.407 34.5561 197.321 34.5018 197.255 34.4349L195.511 32.6738C195.455 32.6172 195.414 32.5528 195.391 32.4843C195.368 32.4158 195.363 32.3445 195.376 32.2745C195.389 32.2044 195.42 32.1371 195.468 32.0762C195.515 32.0154 195.578 31.9622 195.653 31.9198C195.728 31.8774 195.813 31.8465 195.903 31.8289C195.994 31.8114 196.088 31.8075 196.18 31.8175C196.273 31.8275 196.362 31.8512 196.442 31.8872C196.522 31.9233 196.592 31.9709 196.648 32.0275L197.789 33.1796L200.719 29.8505C200.824 29.7318 200.986 29.6495 201.171 29.6216C201.356 29.5937 201.548 29.6225 201.705 29.7017C201.861 29.7809 201.97 29.9039 202.007 30.0438C202.044 30.1838 202.007 30.3291 201.902 30.448L198.415 34.4105C198.352 34.4822 198.267 34.5414 198.167 34.5831C198.068 34.6248 197.957 34.6478 197.843 34.6502C197.836 34.6503 197.83 34.6504 197.823 34.6504Z" fill="white"/>
<path d="M215.253 96.1348L212.653 96.7935L208.061 89.5093L211.899 88.5369L215.253 96.1348Z" fill="#FFB6B6"/>
<path d="M216.759 97.8761L208.375 99.5748L208.339 99.4945C208.048 98.8341 208.113 98.5527 208.523 97.9296C208.724 97.6228 209.003 97.3491 209.344 97.1245C209.685 96.8998 210.082 96.7287 210.511 96.621L210.511 96.6209L211.654 95.3527L214.901 95.509L215.632 95.3236L216.759 97.8761Z" fill="#2A2962"/>
<path d="M221.678 97.9868H218.936L217.631 89.9754L221.678 89.9756L221.678 97.9868Z" fill="#FFB6B6"/>
<path d="M222.377 99.5748L213.536 99.5745V99.4898C213.536 98.7935 213.894 98.5643 214.544 98.072C214.863 97.8292 215.242 97.6368 215.66 97.5057C216.077 97.3747 216.525 97.3077 216.977 97.3086H216.977L218.592 96.3805L221.605 97.3087L222.377 97.3087L222.377 99.5748Z" fill="#2A2962"/>
<path d="M200.81 33.7979C200.866 34.0155 200.985 34.2211 201.158 34.4002C201.331 34.5793 201.553 34.7275 201.81 34.8344C202.066 34.9413 202.35 35.0043 202.642 35.019C202.935 35.0337 203.227 34.9996 203.5 34.9193L206.666 37.4227L209.143 36.3366L204.607 32.8489C204.399 32.5106 204.034 32.2419 203.581 32.0939C203.129 31.9459 202.62 31.9287 202.152 32.0457C201.684 32.1627 201.289 32.4057 201.042 32.7286C200.794 33.0516 200.712 33.432 200.81 33.7979Z" fill="#FFB6B6"/>
<path d="M221.296 46.3853L222.723 45.2669L214.471 39.4774L206.165 33.8596L203.865 36.3219L212.568 42.476L221.296 46.3853Z" fill="#E4E4E4"/>
<path d="M216.225 84.379C216.225 82.9735 216.262 81.971 216.291 81.1654C216.378 78.8079 216.401 78.1742 215.21 74.1143L214.904 73.0717L213.1 77.1708C212.524 78.4784 212.23 79.8478 212.228 81.2263L215.01 93.8669H209.325L205.162 80.2011L205.16 76.021C204.793 75.7334 204.588 75.3492 204.588 74.9493C204.588 74.5495 204.793 74.1653 205.16 73.8777L206.543 67.6152L207.943 59.175H223.278C223.278 59.175 225.984 63.4242 223.295 67.6391L223.294 84.3843L221.905 95.9624H217.615L216.225 84.379Z" fill="#2A2962"/>
<path d="M222.34 60.1966L207.997 59.2912L207.922 59.2866L209.067 43.6787C209.134 42.6974 209.589 41.754 210.372 40.9705C211.155 40.187 212.23 39.5996 213.459 39.2843V38.1921C213.459 37.9217 213.601 37.6626 213.854 37.4714C214.106 37.2802 214.448 37.1727 214.805 37.1724H216.901C217.151 37.1718 217.396 37.2243 217.609 37.3239C217.822 37.4235 217.994 37.5663 218.105 37.7361L219.13 39.2887L223.005 41.637C224.919 42.7969 223.378 54.4258 223.296 55.0394L224.233 58.5893C224.284 58.7846 224.278 58.9861 224.215 59.1793C224.151 59.3725 224.032 59.5527 223.865 59.7069C223.699 59.861 223.489 59.9853 223.252 60.0709C223.015 60.1564 222.755 60.201 222.492 60.2015C222.442 60.2014 222.391 60.1998 222.34 60.1966Z" fill="#E4E4E4"/>
<path d="M207.151 64.3177C207.378 64.1774 207.561 64.0012 207.688 63.8014C207.815 63.6016 207.883 63.3832 207.887 63.1614C207.89 62.9397 207.83 62.72 207.709 62.5179C207.588 62.3158 207.411 62.1362 207.189 61.9918L208.612 58.6972L206.18 57.5537L204.256 62.2278C203.961 62.5265 203.82 62.897 203.861 63.2691C203.902 63.6412 204.121 63.989 204.478 64.2466C204.835 64.5042 205.304 64.6537 205.797 64.6668C206.289 64.6799 206.771 64.5557 207.151 64.3177Z" fill="#FFB6B6"/>
<path d="M212.153 41.9202L210.178 41.4216L207.326 51.0608L204.699 60.647L208.65 61.0873L211.714 50.8946L212.153 41.9202Z" fill="#E4E4E4"/>
<path d="M214.309 36.1748C216.911 36.1748 219.02 34.5771 219.02 32.6063C219.02 30.6355 216.911 29.0378 214.309 29.0378C211.707 29.0378 209.598 30.6355 209.598 32.6063C209.598 34.5771 211.707 36.1748 214.309 36.1748Z" fill="#FFB6B6"/>
<path d="M207.971 30.8587C208.014 30.5206 208.142 30.1917 208.348 29.8897C208.568 30.2525 209.255 30.3154 209.725 30.1349C210.195 29.9543 210.51 29.6114 210.846 29.3038C211.733 28.492 212.952 27.8335 214.334 27.7135C215.716 27.5936 217.239 28.122 217.761 29.0985C217.995 28.8521 218.495 28.8247 218.849 28.9679C219.19 29.131 219.457 29.3702 219.612 29.6527C219.96 30.1932 220.156 30.7823 220.189 31.3831C220.222 31.9839 220.091 32.5833 219.803 33.1438C219.222 34.2592 217.785 35.7619 216.302 36.1829C215.402 36.4385 214.493 36.1114 213.536 36.1829C213.586 35.3916 213.789 34.4152 213.839 33.6239C213.866 33.1905 213.87 32.7056 213.479 32.3884C213.36 32.3022 213.216 32.237 213.059 32.1974C212.903 32.1579 212.736 32.1449 212.572 32.1594C212.408 32.1739 212.25 32.2156 212.109 32.2814C211.969 32.3473 211.849 32.4358 211.759 32.5406C211.71 32.2945 211.601 32.0577 211.435 31.8427C211.351 31.7361 211.228 31.6495 211.082 31.5928C210.936 31.536 210.772 31.5114 210.608 31.5216C210.208 31.5712 209.961 31.882 209.595 32.0121C209.386 32.0754 209.157 32.0889 208.939 32.0509C208.72 32.0129 208.522 31.9252 208.371 31.7995C208.224 31.6712 208.113 31.5217 208.044 31.36C207.975 31.1984 207.95 31.0279 207.971 30.8587Z" fill="#2A2962"/>
<path opacity="0.1" d="M214.919 50.8513L209.386 59.2332H213.536L214.919 50.8513Z" fill="black"/>
<path d="M252 99.8312C252 99.8534 251.994 99.8754 251.983 99.8959C251.972 99.9164 251.956 99.9351 251.935 99.9508C251.914 99.9664 251.89 99.9789 251.863 99.9873C251.835 99.9958 251.806 100 251.777 100H146.131C146.072 100 146.016 99.9822 145.974 99.9506C145.932 99.9189 145.909 99.876 145.909 99.8312C145.909 99.7865 145.932 99.7436 145.974 99.7119C146.016 99.6803 146.072 99.6625 146.131 99.6625H251.777C251.806 99.6624 251.835 99.6667 251.863 99.6752C251.89 99.6836 251.914 99.6961 251.935 99.7118C251.956 99.7274 251.972 99.7461 251.983 99.7666C251.994 99.7871 252 99.8091 252 99.8312Z" fill="#CACACA"/>
</g>
<defs>
<clipPath id="clip0_187_59">
<rect width="179" height="82" fill="white" transform="translate(-19 9)"/>
</clipPath>
<clipPath id="clip1_187_59">
<rect width="136" height="100" fill="white" transform="translate(116)"/>
</clipPath>
</defs>
</svg>
