<svg width="489" height="373" viewBox="0 0 489 373" fill="none" xmlns="http://www.w3.org/2000/svg">
<g clip-path="url(#clip0_131_46)">
<path d="M169.902 357.296C169.513 357.315 169.128 357.201 168.799 356.969C168.47 356.737 168.213 356.397 168.062 355.996C167.912 355.595 167.876 355.152 167.959 354.727C168.042 354.303 168.239 353.916 168.525 353.621L168.656 353.044C168.638 352.998 168.621 352.952 168.604 352.905C168.212 351.872 167.555 350.991 166.716 350.373C165.877 349.756 164.893 349.428 163.888 349.432C162.882 349.436 161.901 349.772 161.066 350.397C160.231 351.022 159.58 351.908 159.195 352.944C157.656 357.081 155.696 361.224 155.214 365.598C155.001 367.531 155.091 369.49 155.479 371.389C151.864 362.59 149.987 353.027 149.975 343.347C149.974 340.918 150.095 338.491 150.337 336.077C150.538 334.098 150.815 332.134 151.17 330.183C153.107 319.598 157.267 309.678 163.307 301.236C166.23 299.456 168.595 296.718 170.081 293.393C170.619 292.197 171 290.921 171.211 289.604C170.881 289.652 169.967 284.047 170.216 283.703C169.757 282.925 168.934 282.538 168.432 281.779C165.936 278.002 162.497 278.661 160.701 283.794C156.866 285.954 156.829 289.537 159.182 292.982C160.679 295.174 160.885 298.141 162.199 300.488C162.064 300.681 161.923 300.868 161.788 301.061C159.317 304.606 157.164 308.413 155.359 312.427C155.798 307.93 155.274 303.381 153.83 299.154C152.367 295.215 149.624 291.897 147.209 288.492C144.308 284.401 138.359 286.186 137.847 291.372C137.842 291.422 137.838 291.472 137.833 291.522C138.192 291.748 138.543 291.988 138.886 292.241C139.318 292.563 139.653 293.023 139.846 293.561C140.039 294.098 140.083 294.689 139.971 295.254C139.858 295.82 139.596 296.334 139.217 296.731C138.838 297.127 138.361 297.386 137.848 297.474L137.795 297.483C137.923 298.926 138.149 300.356 138.471 301.761C135.372 315.133 142.062 320.003 151.613 320.222C151.824 320.343 152.03 320.463 152.241 320.578C150.427 326.314 149.289 332.289 148.856 338.352C148.611 341.929 148.626 345.522 148.899 349.097L148.883 348.97C148.191 344.995 146.291 341.409 143.504 338.816C139.364 335.021 133.516 333.624 129.05 330.574C128.575 330.234 128.024 330.052 127.46 330.051C126.896 330.049 126.343 330.228 125.867 330.565C125.391 330.902 125.011 331.385 124.773 331.955C124.534 332.526 124.447 333.16 124.521 333.784C124.527 333.829 124.533 333.873 124.539 333.917C125.205 334.22 125.853 334.569 126.48 334.961C126.839 335.187 127.19 335.427 127.533 335.68C127.965 336.002 128.299 336.462 128.493 337C128.686 337.537 128.73 338.127 128.617 338.693C128.505 339.259 128.242 339.773 127.864 340.169C127.485 340.565 127.008 340.825 126.495 340.913L126.442 340.922C126.404 340.928 126.372 340.934 126.334 340.94C127.471 343.971 129.068 346.761 131.053 349.187C132.991 360.861 141.312 361.968 150.213 358.569H150.219C151.195 363.305 152.61 367.915 154.441 372.324H169.524C169.578 372.137 169.627 371.944 169.676 371.757C168.279 371.855 166.878 371.762 165.502 371.48C166.621 369.947 167.74 368.403 168.859 366.87C168.884 366.842 168.908 366.812 168.93 366.78C169.497 365.996 170.07 365.217 170.638 364.433L170.638 364.432C170.668 362.028 170.421 359.63 169.903 357.296L169.902 357.296Z" fill="#F2F2F2"/>
<path d="M53.8859 331.836L58.0476 336.745L77.372 320.768L71.2298 313.523L53.8859 331.836Z" fill="#B93200"/>
<path d="M60.7057 334.551L55.9942 329.612L54.8372 328.402L42.8424 339.104L45.9626 342.784L49.6353 340.156L47.9481 345.127L56.2207 354.884C56.6171 355.352 57.1371 355.667 57.7049 355.781C58.2727 355.896 58.8586 355.806 59.3769 355.523C59.8952 355.24 60.319 354.779 60.5863 354.208C60.8535 353.638 60.9504 352.987 60.8626 352.35L59.0772 339.46L62.2234 336.14L60.7057 334.551Z" fill="#2A2962"/>
<path d="M145.35 153.112L144.031 169.187C144.031 169.187 141.728 181.298 143.322 180.317C144.917 179.335 142.058 183.753 142.811 187.585C143.564 191.416 136.378 219.988 139.633 217.028C142.887 214.068 137.752 234.515 134.504 244.603C133.51 247.721 132.488 250.877 131.459 254.011C131.257 254.645 131.053 255.272 130.844 255.906C129.511 259.983 128.178 264 126.899 267.791C126.717 268.319 126.54 268.848 126.365 269.369C126.358 269.384 126.358 269.399 126.351 269.399C122.143 281.759 118.536 291.485 117.095 293.093C116.344 293.931 104.429 303.536 92.4198 313.155C79.8148 323.25 67.108 333.368 67.108 333.368L55.2405 319.475C55.2405 319.475 55.5246 319.384 56.0592 319.203C57.047 318.886 58.8739 318.289 61.2691 317.497C71.2556 314.212 58.5693 309.1 67.636 305.446C70.1934 304.419 71.8985 303.619 72.284 303.196C74.5372 300.742 77.5617 294.89 78.9892 297.344C80.4168 299.798 86.8921 281.563 88.7593 279.759C89.7607 278.785 93.0287 274.232 95.8299 270.23C98.2383 266.786 100.309 263.744 100.309 263.744C100.309 263.744 100.349 262.113 100.41 259.515C100.498 255.672 100.627 249.699 100.762 243.719C100.755 243.712 100.755 243.712 100.762 243.712C100.81 241.462 100.857 239.211 100.904 237.075C100.938 235.421 100.972 233.828 101.006 232.355C101.094 227.946 101.155 224.609 101.155 223.778C101.155 221.052 101.155 223.174 103.083 221.528C103.371 221.276 103.644 221.003 103.902 220.712C104.314 220.298 104.694 219.846 105.038 219.361C105.181 219.021 104.294 219.482 103.144 219.225C102.521 219.086 101.945 218.756 101.479 218.274C99.057 215.842 101.669 208.367 101.669 208.367C96.1613 196.075 96.5607 185.995 99.1383 178.225C101.066 172.65 104.125 167.649 108.076 163.615C109.58 162.016 111.218 160.582 112.968 159.333L113.137 158.314L114.998 147.071C115.988 146.465 117.017 145.942 118.076 145.508C121.381 144.185 124.927 143.791 128.401 144.361C131.854 144.918 135.196 146.126 138.287 147.932C140.813 149.348 143.183 151.086 145.35 153.112Z" fill="#2A2962"/>
<path d="M93.3845 356.882L99.4137 357.508L104.494 331.274L95.595 330.35L93.3845 356.882Z" fill="#B93200"/>
<path d="M110.749 367.165L101.791 358.791L102.197 353.974L100.113 353.898L93.6582 353.664H93.6512L92.0681 353.604L89.3818 370.472L93.9083 370.94L95.1058 366.259L96.7772 371.242L99.1723 371.491L108.76 372.488C108.841 372.495 108.929 372.503 109.01 372.503C109.391 372.504 109.768 372.414 110.116 372.239C110.463 372.065 110.774 371.81 111.026 371.491C111.419 371.012 111.659 370.401 111.71 369.754C111.749 369.268 111.683 368.779 111.515 368.327C111.348 367.876 111.085 367.477 110.749 367.165Z" fill="#2A2962"/>
<path d="M126.899 267.791C124.606 281.722 114.896 314.386 109.024 333.504C106.351 342.24 104.484 348.152 104.484 348.152L101.439 347.08H101.432L96.2832 345.268L94.409 344.603H94.402L92.1287 343.795C92.1287 343.795 92.3927 328.196 92.4198 313.155C92.44 306.85 92.4129 300.636 92.3048 295.713C92.1829 290.345 91.9731 286.501 91.6282 285.739C90.2004 282.612 92.589 282.28 95.1127 281.495C97.643 280.702 95.6674 279.509 94.6862 276.972C94.0234 275.281 95.3291 273.023 96.2561 271.74C96.5119 271.378 96.7852 271.033 97.0748 270.705C97.0748 270.705 96.6281 270.531 95.8299 270.229C98.2384 266.786 100.309 263.744 100.309 263.744C100.309 263.744 100.349 262.113 100.41 259.515C100.498 255.672 100.627 249.699 100.762 243.719C100.755 243.712 100.755 243.712 100.762 243.712C100.81 241.461 100.857 239.211 100.904 237.075C104.774 240.389 108.536 243.636 111.946 246.642C111.951 246.645 111.954 246.65 111.956 246.655C111.959 246.66 111.96 246.666 111.96 246.672C120.154 253.898 126.304 259.697 127.17 261.539C127.562 262.369 127.427 264.589 126.899 267.791Z" fill="#2A2962"/>
<path d="M328.613 21.8158C329.741 21.6981 330.866 22.0761 331.748 22.8696C332.63 23.663 333.199 24.8092 333.336 26.0642C333.36 26.3198 333.365 26.5772 333.351 26.8337L347.303 33.483L346.771 42.571L328.54 31.1562C327.591 31.0093 326.713 30.516 326.042 29.7533C325.371 28.9906 324.945 28.0015 324.831 26.9403C324.771 26.3358 324.818 25.724 324.97 25.1399C325.122 24.5558 325.376 24.0108 325.716 23.5361C326.057 23.0614 326.478 22.6662 326.956 22.3731C327.433 22.08 327.958 21.8948 328.5 21.828C328.538 21.8234 328.575 21.8193 328.613 21.8158Z" fill="#FEBBA2"/>
<path d="M423.541 77.9151C423.197 76.1531 422.556 74.48 421.654 72.9843C421.403 72.5587 421.129 72.1502 420.835 71.761C419.739 70.304 418.717 68.9675 417.77 67.7744C417.195 67.0267 416.633 66.3321 416.106 65.6906C413.041 61.9378 411.031 59.9521 410.111 59.7858C409.664 59.7028 409.225 59.6423 408.798 59.5819C406.613 59.2799 405.03 59.0609 404.982 56.4861C404.978 56.1171 405 55.7484 405.05 55.3837C405.132 54.7712 405.252 54.1657 405.408 53.5716C405.499 53.2348 405.569 52.8918 405.618 52.5448C405.686 52.0994 405.659 51.7669 405.442 51.563C405.172 51.3141 404.718 51.3517 403.866 51.7293C403.731 51.7897 403.575 51.8576 403.412 51.9405C403.358 51.9634 403.304 51.9936 403.243 52.0239C403.135 52.0766 403.013 52.137 402.892 52.2049C401.87 52.7487 400.293 52.8165 398.494 52.6126C393.182 52.0087 385.997 49.0187 385.909 48.9807L340.658 29.3568L340.238 30.1119L339.244 31.9088L338.899 32.5279L338.506 33.2376L336.794 36.3183L335.928 37.8738L350.543 50.1738L352.133 51.5102L353.5 52.6657L381.403 76.1556L391.809 83.8195L394.13 85.5257L404.022 92.8046C405.443 93.853 407.039 94.5729 408.714 94.9218C410.389 95.2707 412.11 95.2417 413.775 94.8363C415.44 94.4309 417.015 93.6575 418.408 92.5616C419.801 91.4657 420.983 90.0696 421.884 88.4556C423.64 85.3149 424.235 81.5355 423.541 77.9151Z" fill="#E6E6E6"/>
<path d="M488.323 373H0.676601C0.497155 373 0.325059 372.92 0.198171 372.779C0.071284 372.637 0 372.445 0 372.245C0 372.045 0.071284 371.853 0.198171 371.711C0.325059 371.569 0.497155 371.49 0.676601 371.49H488.323C488.503 371.49 488.675 371.569 488.802 371.711C488.929 371.853 489 372.045 489 372.245C489 372.445 488.929 372.637 488.802 372.779C488.675 372.92 488.503 373 488.323 373Z" fill="#E6E6E6"/>
<path d="M111.582 125.938L112.849 139.062L112.104 156.272L146.262 151.744L149.471 125.938L145.382 125.983L111.582 125.938Z" fill="#FEBBA2"/>
<path d="M140.637 83.5473L127.781 72.2213L121.033 71.7834L111.02 78.942L108.568 92.9012L102.769 108.62L111.275 151.041C111.275 151.041 112.072 154.085 109.982 154.451C107.891 154.816 108.142 159.303 108.142 159.303C108.142 159.303 108.568 163.192 106.538 163.535C104.508 163.877 99.0957 163.877 103.832 170.673C108.568 177.468 146.029 151.766 146.029 151.766L151.469 119.907C151.469 119.907 162.021 104.091 150.658 95.0334L140.637 83.5473Z" fill="#E6E6E6"/>
<path d="M84.517 179.862C83.9505 179.073 83.546 178.155 83.3317 177.173C83.1175 176.191 83.0989 175.168 83.2772 174.177C83.4554 173.186 83.8263 172.251 84.3635 171.437C84.9008 170.623 85.5914 169.951 86.3867 169.467L102.557 108.907L112.668 114.588L95.0583 172.634C95.698 174.179 95.8076 175.932 95.3664 177.561C94.9252 179.19 93.9639 180.582 92.6645 181.473C91.3652 182.364 89.8181 182.692 88.3165 182.395C86.8148 182.098 85.4629 181.197 84.517 179.862Z" fill="#B93200"/>
<path d="M113.342 78.3816C113.342 78.3816 110.452 76.6674 108.475 84.0854C106.892 90.024 94.0493 125.397 93.8855 133.997C92.8286 134.247 91.8763 134.882 91.1785 135.803C90.4807 136.723 90.0772 137.877 90.0315 139.081L105.911 141.456C108.685 138.844 109.413 135.317 108.34 134.27L111.787 123.762L126.171 90.328L115.451 79.5793L113.342 78.3816Z" fill="#E6E6E6"/>
<path d="M198.189 159.956C198.394 158.972 198.403 157.949 198.215 156.96C198.028 155.971 197.648 155.04 197.104 154.232C196.559 153.425 195.862 152.76 195.062 152.286C194.263 151.811 193.379 151.538 192.475 151.486L155.381 104.208L147.512 114.686L185.883 158.526C185.905 160.228 186.485 161.861 187.515 163.117C188.544 164.373 189.95 165.164 191.467 165.341C192.983 165.517 194.506 165.066 195.745 164.074C196.983 163.081 197.853 161.616 198.189 159.956H198.189Z" fill="#B93200"/>
<path d="M132.874 82.3659C132.874 82.3659 134.816 79.4253 139.473 85.1598C143.201 89.7506 168.488 115.447 171.969 123.123C173.018 122.838 174.123 122.951 175.109 123.444C176.095 123.938 176.906 124.783 177.414 125.847L164.017 135.651C160.503 134.635 158.479 131.806 159.042 130.344L151.861 122.533L125.936 99.3284L131.436 84.4636L132.874 82.3659Z" fill="#E6E6E6"/>
<path d="M271.2 212.171C323.515 212.171 365.924 164.844 365.924 106.462C365.924 48.0811 323.515 0.75354 271.2 0.75354C218.885 0.75354 176.476 48.0811 176.476 106.462C176.476 164.844 218.885 212.171 271.2 212.171Z" fill="#2A2962"/>
<path opacity="0.2" d="M266.719 143.876C262.38 148.718 256.494 151.439 250.358 151.439C244.221 151.439 238.335 148.718 233.996 143.876V143.876C230.267 139.713 227.924 134.253 227.355 128.401C226.787 122.549 228.026 116.656 230.869 111.697L225.778 117.493C221.439 122.336 219.001 128.904 219.001 135.752C219.001 142.601 221.439 149.169 225.778 154.011V154.012C230.118 158.854 236.003 161.575 242.14 161.575C248.277 161.575 254.162 158.854 258.502 154.012L269.783 140.939L269.954 140.127L266.719 143.876Z" fill="black"/>
<path opacity="0.2" d="M277.466 63.1164C282.538 59.2612 288.774 57.8125 294.804 59.089C300.833 60.3654 306.161 64.2625 309.616 69.9228V69.9229C312.584 74.7886 313.974 80.6399 313.555 86.5077C313.137 92.3754 310.934 97.9075 307.313 102.188L313.283 97.5522C318.355 93.697 321.847 87.7512 322.991 81.0227C324.135 74.2942 322.837 67.3342 319.382 61.6738V61.6738C315.927 56.0134 310.599 52.1164 304.57 50.8399C298.541 49.5635 292.304 51.0122 287.232 54.8674L273.965 65.3639L273.661 66.1266L277.466 63.1164Z" fill="black"/>
<path d="M242.14 164.805C237.162 164.805 232.296 163.158 228.157 160.072C224.018 156.985 220.792 152.599 218.887 147.466C216.982 142.334 216.483 136.687 217.455 131.238C218.426 125.79 220.823 120.785 224.343 116.857L245.702 92.538C248.039 89.9264 250.813 87.8542 253.868 86.4399C256.922 85.0256 260.196 84.2969 263.503 84.2954C266.81 84.2939 270.085 85.0197 273.14 86.4313C276.196 87.8429 278.972 89.9126 281.31 92.5222C281.691 92.947 281.905 93.5231 281.905 94.1238C281.905 94.7245 281.691 95.3006 281.31 95.7253C280.93 96.1501 280.413 96.3887 279.875 96.3887C279.337 96.3887 278.821 96.1501 278.44 95.7253C274.481 91.3076 269.112 88.8258 263.513 88.8258C257.915 88.8258 252.546 91.3076 248.587 95.7254C245.45 108.068 238.671 116.536 227.228 120.044C225.264 122.23 223.706 124.826 222.642 127.684C221.578 130.543 221.029 133.607 221.027 136.702C221.025 139.797 221.569 142.862 222.628 145.722C223.688 148.583 225.242 151.182 227.203 153.371C229.163 155.561 231.49 157.298 234.052 158.483C236.614 159.669 239.36 160.279 242.134 160.279C244.907 160.28 247.654 159.67 250.216 158.485C252.778 157.301 255.106 155.564 257.067 153.375C256.604 148.312 257.93 143.552 268.321 140.334C268.506 140.118 268.727 139.946 268.971 139.826C269.216 139.706 269.479 139.642 269.746 139.636C270.013 139.63 270.278 139.683 270.527 139.791C270.776 139.9 271.003 140.062 271.195 140.269C271.387 140.476 271.541 140.723 271.648 140.996C271.754 141.269 271.812 141.563 271.816 141.861C271.821 142.159 271.773 142.455 271.675 142.732C271.577 143.009 271.431 143.262 271.245 143.476L259.964 156.548C257.63 159.173 254.853 161.254 251.794 162.671C248.734 164.089 245.453 164.814 242.14 164.805Z" fill="white"/>
<path d="M276.817 130.403C273.51 130.413 270.235 129.691 267.18 128.278C264.125 126.866 261.351 124.792 259.02 122.175C258.639 121.751 258.425 121.174 258.425 120.574C258.425 119.973 258.639 119.397 259.02 118.972C259.401 118.547 259.917 118.309 260.455 118.309C260.994 118.309 261.51 118.547 261.891 118.972C263.851 121.16 266.178 122.895 268.739 124.079C271.3 125.263 274.045 125.872 276.817 125.872C279.589 125.872 282.334 125.263 284.895 124.079C287.456 122.895 289.783 121.16 291.743 118.972C294.448 100.787 305.477 98.2206 315.063 92.9484C317.024 90.7609 318.578 88.164 319.639 85.3059C320.7 82.4478 321.246 79.3844 321.246 76.2908C321.246 73.1972 320.7 70.1339 319.639 67.2758C318.578 64.4177 317.023 61.8208 315.063 59.6333C313.103 57.4458 310.776 55.7106 308.215 54.5267C305.654 53.3429 302.909 52.7336 300.137 52.7336C297.364 52.7336 294.619 53.3429 292.058 54.5268C289.497 55.7107 287.17 57.446 285.21 59.6335C282.543 68.2194 279.925 76.9067 271.983 74.3948C271.794 74.6052 271.57 74.772 271.324 74.8858C271.078 74.9996 270.814 75.0582 270.547 75.0582C270.009 75.0583 269.493 74.8196 269.112 74.3949C268.732 73.9701 268.518 73.394 268.518 72.7933C268.518 72.1925 268.732 71.6164 269.112 71.1916L282.34 56.4303C284.677 53.8221 287.451 51.7532 290.505 50.3417C293.558 48.9301 296.831 48.2036 300.136 48.2036C303.442 48.2036 306.714 48.9301 309.768 50.3416C312.822 51.7531 315.596 53.822 317.933 56.4301C320.27 59.0383 322.124 62.1346 323.389 65.5423C324.654 68.95 325.305 72.6023 325.305 76.2908C325.305 79.9793 324.654 83.6316 323.389 87.0393C322.124 90.4471 320.271 93.5434 317.933 96.1515L294.614 122.176C292.282 124.792 289.508 126.866 286.454 128.279C283.399 129.691 280.123 130.413 276.817 130.403Z" fill="white"/>
<path d="M353.5 52.6657C349.522 45.1257 344.734 38.1553 339.244 31.9088C338.019 30.5196 336.754 29.1602 335.462 27.8389C334.744 27.1067 334.021 26.3892 333.283 25.6869C331.882 24.343 330.441 23.0441 328.973 21.791C312.387 7.63279 292.08 -0.0263955 271.198 -5.43539e-05C218.599 -5.43539e-05 175.797 47.7577 175.797 106.464C175.795 112.937 176.323 119.397 177.374 125.763C177.375 125.799 177.38 125.834 177.387 125.869C177.868 128.791 178.463 131.675 179.153 134.507C184.042 154.492 194.05 172.452 207.951 186.184C221.851 199.915 239.039 208.822 257.409 211.813C275.779 214.804 294.531 211.748 311.368 203.02C328.204 194.292 342.392 180.272 352.194 162.678C353.513 160.307 354.753 157.876 355.915 155.384C363.324 139.43 366.988 121.641 366.566 103.678C366.144 85.7146 361.648 68.1642 353.5 52.6657ZM271.198 211.418C258.846 211.423 246.615 208.711 235.203 203.438C223.79 198.166 213.421 190.435 204.687 180.688C195.953 170.941 189.026 159.369 184.301 146.634C179.576 133.898 177.146 120.248 177.151 106.464C177.151 48.588 219.343 1.51007 271.198 1.51007C283.747 1.51801 296.167 4.32934 307.727 9.77837C319.287 15.2274 329.752 23.2038 338.506 33.2375C340.789 35.8384 342.944 38.5758 344.961 41.4378C346.958 44.2382 348.821 47.1543 350.543 50.1737C357.721 62.7569 362.411 76.9037 364.301 91.6702C366.191 106.437 365.237 121.483 361.504 135.806C360.672 139.007 359.697 142.141 358.601 145.214C357.498 148.294 356.274 151.315 354.92 154.244C347.007 171.428 335.011 185.85 320.244 195.934C305.478 206.018 288.51 211.375 271.198 211.418Z" fill="#3F3D56"/>
<path d="M400.978 357.122L394.759 357.063L392.006 329.67L401.185 329.757L400.978 357.122Z" fill="#FEBBA2"/>
<path d="M402.628 353.921L401.004 353.8L394.38 353.294L392.249 353.136L392.208 358.096L382.276 365.617C381.785 365.989 381.414 366.526 381.216 367.15C381.019 367.774 381.005 368.452 381.177 369.085C381.35 369.719 381.699 370.274 382.174 370.67C382.649 371.066 383.225 371.282 383.818 371.287L396.18 371.401L398.345 366.508L399.136 371.431L403.805 371.476L402.628 353.921Z" fill="#2A2962"/>
<path d="M466.453 352.051L460.509 354.09L450.475 328.903L459.249 325.893L466.453 352.051Z" fill="#FEBBA2"/>
<path d="M467.161 348.447L465.578 348.877L459.131 350.621L457.053 351.188L458.359 355.937L450.923 366.447C450.6 366.906 450.4 367.456 450.344 368.035C450.288 368.615 450.379 369.2 450.607 369.724C450.835 370.249 451.19 370.691 451.633 371.001C452.075 371.31 452.587 371.475 453.109 371.476C453.384 371.475 453.658 371.43 453.921 371.34L465.741 367.285L466.478 361.887L468.569 366.311L473.028 364.779L467.161 348.447Z" fill="#2A2962"/>
<path d="M388.469 126.787L376.602 165.276L376.21 168.356C373.219 171.524 376.976 172.568 375.567 173.403C374.159 174.239 373.212 176.581 375.11 177C377.008 177.418 383.128 327.539 391.2 333.368C399.272 339.197 404.185 343.413 402.702 334.878C402.105 331.439 402.95 313.002 404.171 292.211C404.31 289.855 406.498 287.361 404.6 285.07C402.702 282.779 404.834 281.271 404.953 279.37C406.656 252.22 408.621 225.416 408.621 225.416C408.621 225.416 421.202 273.632 424.469 269.9C427.736 266.167 426.443 275.357 427.441 278.103C428.276 280.398 424.716 284.906 429.947 284.975C435.179 285.044 447.465 331.911 448.711 331.858C451.18 331.753 458.121 332.05 462.243 331.103C464.278 330.635 455.243 295.152 447.698 264.512C447.097 262.068 443.822 262.011 445.928 257.294C448.034 252.576 437.556 222.052 438.455 220.64C440.842 216.893 441.75 215.264 439.397 215.019C437.043 214.773 436.347 216.214 436.22 212.579C436.093 208.944 435.687 199.981 435.687 199.981C435.687 199.981 433.982 164.532 422.043 144.946L421.024 133.309L388.469 126.787Z" fill="#2A2962"/>
<path d="M418.118 53.3029L402.38 55.8036L401.431 68.5212L393.664 82.0785C393.664 82.0785 376.402 95.6357 388.441 117.052C383.859 135.5 379.304 153.193 374.962 164.989C371.579 188.396 401.885 190.639 436.532 182.355C436.532 182.355 436.054 172.347 432.91 167.535C429.766 162.724 431.478 161.673 431.478 161.673L429.281 152.684C430.524 139.69 426.326 138.524 424.353 132.521L430.343 70.2324L418.118 53.3029Z" fill="#E6E6E6"/>
<path d="M342.566 162.177C342.733 160.926 343.33 159.798 344.231 159.032C345.132 158.265 346.266 157.921 347.39 158.073C347.618 158.108 347.844 158.164 348.063 158.24L357.18 144.707L364.961 147.453L350.677 164.486C350.322 165.479 349.683 166.313 348.86 166.858C348.036 167.403 347.073 167.629 346.123 167.499C345.582 167.42 345.061 167.223 344.589 166.918C344.117 166.614 343.703 166.209 343.372 165.727C343.04 165.244 342.797 164.693 342.656 164.106C342.514 163.518 342.479 162.906 342.55 162.303C342.555 162.261 342.56 162.219 342.566 162.177Z" fill="#FEBBA2"/>
<path d="M423.541 77.915C423.318 77.6053 423.075 77.3034 422.818 77.0088C421.03 74.9534 418.729 73.5481 416.214 72.9769C413.699 72.4057 411.089 72.6952 408.724 73.8075C408.494 73.9129 408.264 74.0338 408.041 74.1548C399.955 78.5867 395.591 81.5392 395.063 82.921C394.881 83.3892 394.725 83.8497 394.569 84.2951C394.42 84.7331 394.278 85.1482 394.13 85.5257C393.507 87.1417 392.79 88.146 390.963 87.6929C390.357 87.5275 389.773 87.2764 389.224 86.9455C388.974 86.8095 388.744 86.6661 388.527 86.53C387.743 86.0471 387.174 85.6998 386.789 86.0168C386.417 86.3262 386.403 87.1114 386.741 88.9313C386.853 89.6908 386.835 90.4671 386.687 91.219C386.24 93.4123 385.539 95.5316 384.603 97.5238C383.201 100.647 381.623 103.668 379.88 106.569L363.784 132.181L362.695 133.91L361.504 135.806L352.004 150.922L352.566 151.564L354.921 154.244L355.442 154.841L355.915 155.384L357.14 156.781L358.29 158.087L383.954 134.756L386.816 132.151L391.944 127.485L402.452 117.933L422.337 97.3955C423.592 96.1094 424.602 94.5536 425.305 92.8215C426.009 91.0893 426.391 89.2165 426.43 87.3154C426.43 87.1871 426.437 87.0661 426.437 86.9378C426.445 83.6453 425.42 80.4535 423.541 77.915Z" fill="#E6E6E6"/>
<path d="M408.67 52.84C418.382 52.84 426.256 44.0533 426.256 33.2145C426.256 22.3756 418.382 13.589 408.67 13.589C398.957 13.589 391.084 22.3756 391.084 33.2145C391.084 44.0533 398.957 52.84 408.67 52.84Z" fill="#FEBBA2"/>
<path d="M431.975 60.428C434.336 64.1976 435.914 68.5063 436.597 73.0413C434.695 74.3993 432.481 75.1126 430.223 75.0947C430.146 74.7647 430.07 74.4347 429.982 74.1047C429.328 71.5493 428.354 69.1095 427.091 66.8569C427.264 69.2859 426.969 71.7281 426.225 74.0192C425.032 73.414 423.754 73.0459 422.447 72.9314C421.383 72.9313 420.333 73.2074 419.38 73.738C418.274 69.6436 417.256 65.8791 416.533 63.178C416.511 69.9492 407.618 75.8525 397.914 74.9969C397.564 74.7525 401.079 63.618 400.74 63.3613C399.962 62.7869 399.206 62.1636 398.451 61.5525C401.627 56.0769 405.077 50.2102 404.485 49.3303C404.529 50.4181 401.046 55.6491 397.257 60.5869C395.154 58.8636 407.103 30.8258 401.2 28.5525C401.101 29.5425 399.798 29.5425 398.21 29.3347C397.791 27.7012 397.168 26.1418 396.359 24.7024C396.464 26.1523 396.308 27.6111 395.899 28.9924C394.331 28.9929 392.767 29.1773 391.233 29.5424C390.879 28.9193 390.487 28.3232 390.061 27.758C390.103 28.4468 390.085 29.1386 390.007 29.8235C388.441 30.2024 387.148 30.6424 386.962 30.9969C385.735 30.4957 387.827 28.2346 387.061 27.0613C385.111 24.128 388.003 19.8502 389.831 16.819C393.588 10.6102 401.835 8.45907 407.673 12.1868C407.935 11.1724 409.283 10.5002 411.013 10.048C411.746 9.86755 412.497 9.78955 413.247 9.81573C420.695 9.96238 431.033 16.819 431.439 25.118C431.472 25.9491 431.526 26.8535 431.581 27.8191C432.107 37.108 431.461 45.6758 437.145 52.4714C439.204 54.928 439.226 66.5636 438.437 72.5525C436.389 70.1447 434.932 60.7825 431.975 60.428Z" fill="#2A2962"/>
<path d="M238.288 109.114C239.409 109.114 240.318 108.1 240.318 106.849C240.318 105.598 239.409 104.584 238.288 104.584C237.167 104.584 236.258 105.598 236.258 106.849C236.258 108.1 237.167 109.114 238.288 109.114Z" fill="#2A2962"/>
<path d="M302.565 107.604C303.686 107.604 304.595 106.59 304.595 105.339C304.595 104.088 303.686 103.074 302.565 103.074C301.444 103.074 300.535 104.088 300.535 105.339C300.535 106.59 301.444 107.604 302.565 107.604Z" fill="#2A2962"/>
<path d="M109.349 41.3749C107.804 45.6683 103.446 54.1114 102.855 58.7173L103.121 58.4257C103.628 59.3919 104.204 60.3108 104.843 61.1736C105.989 59.8304 107.373 58.7683 108.908 58.055C108.07 59.9731 107.585 62.059 107.481 64.1897C109.125 69.9428 116.728 67.3808 121.183 66.7526C125.632 72.4313 131.55 73.9131 139.301 70.6484C141.468 70.8974 143.895 71.0486 145.414 69.6192C146.933 68.1899 146.028 65.5428 146.845 63.5408C152.666 49.2799 147.294 44.1347 142.73 37.6683C141.725 36.2453 141.73 34.1217 140.507 32.764C138.812 30.882 136.212 30.3031 133.816 29.8395C134.438 29.8761 135.059 29.7332 135.617 29.4246C136.176 29.1161 136.654 28.6522 137.006 28.0776C137.314 27.4987 137.474 26.836 137.466 26.1626C137.458 25.4892 137.284 24.8313 136.963 24.2613C136.105 22.6755 134.324 21.7534 132.606 21.523C130.913 21.3947 129.213 21.5578 127.564 22.0067C126.496 22.1634 125.462 22.5322 124.511 23.0957C124.062 23.363 123.697 23.7767 123.465 24.2818C123.232 24.7868 123.143 25.3589 123.21 25.9217C123.353 26.4415 123.6 26.9184 123.931 27.3171C124.263 27.7157 124.67 28.0256 125.124 28.2239C125.816 28.5503 126.544 28.7726 127.288 28.8849C123.869 28.3898 120.396 29.0681 117.331 30.8297C113.49 33.1161 110.899 37.0839 109.349 41.3749Z" fill="#2A2962"/>
<path d="M130.147 65.4452C137.73 65.4452 143.877 58.5852 143.877 50.1229C143.877 41.6606 137.73 34.8005 130.147 34.8005C122.564 34.8005 116.417 41.6606 116.417 50.1229C116.417 58.5852 122.564 65.4452 130.147 65.4452Z" fill="#B93200"/>
<path d="M116.935 41.9073C117.731 44.5923 120.006 45.4575 122.109 45.9971C122.772 46.1696 123.439 46.3303 124.112 46.4732C124.36 46.1267 124.624 45.787 124.9 45.466C126.046 44.1228 127.431 43.0608 128.965 42.3474C128.301 43.8626 127.86 45.4869 127.659 47.1581C128.93 47.364 130.208 47.5322 131.493 47.6628C132.581 47.921 133.716 47.7033 134.663 47.0544C135.611 46.4056 136.299 45.3752 136.585 44.1763C137.755 46.3116 139.139 48.3225 141.031 49.1707C142.112 49.6045 143.29 49.6401 144.392 49.2724C145.493 48.9047 146.46 48.153 147.151 47.1274C148.242 45.4544 148.998 43.5395 149.369 41.5123C149.906 39.1346 150.204 36.3956 149.15 34.887C148.305 33.6661 146.848 33.6442 145.504 33.7525C142.537 34.0065 139.602 34.6004 136.744 35.5248L136.502 36.1318C136.993 32.8392 135.928 29.6712 133.957 28.5445C132.627 27.7912 131.028 27.9175 129.474 28.0703C127.477 28.1697 125.505 28.5954 123.619 29.3338C121.456 30.2624 119.603 31.9141 118.313 34.0631C116.934 36.4006 116.248 39.5885 116.935 41.9073Z" fill="#2A2962"/>
<path d="M136.508 27.5863C136.373 27.5417 136.724 27.599 136.602 27.6027C136.662 27.5988 136.723 27.5894 136.782 27.5746C136.792 27.5723 136.928 27.5237 136.838 27.5595C137.041 27.4914 137.223 27.359 137.361 27.178C137.684 26.733 137.937 26.2304 138.11 25.6915C138.328 24.9794 138.679 24.3267 139.139 23.7765C139.269 23.6301 139.429 23.5202 139.605 23.4555C139.781 23.3909 139.968 23.3735 140.151 23.4047C140.334 23.4359 140.508 23.5148 140.658 23.635C140.809 23.7552 140.932 23.9133 141.017 24.0965C141.191 24.8033 141.132 25.5562 140.85 26.2182C140.653 26.8919 140.36 27.5256 139.982 28.0951C139.349 29.0264 138.488 29.7322 137.502 30.1263C136.36 30.5889 135.116 30.6286 133.953 30.2395C133.799 30.1683 133.667 30.0489 133.573 29.8956C133.479 29.7423 133.427 29.5619 133.424 29.3763C133.42 29.1907 133.465 29.0079 133.553 28.8502C133.641 28.6925 133.768 28.5668 133.918 28.4882L135.858 27.6021C135.96 27.552 136.07 27.5248 136.182 27.5221C136.293 27.5194 136.404 27.5412 136.508 27.5863C136.612 27.6314 136.707 27.699 136.788 27.785C136.868 27.8711 136.933 27.9741 136.978 28.088C137.023 28.202 137.047 28.3247 137.05 28.4492C137.052 28.5736 137.032 28.6974 136.992 28.8135C136.952 28.9295 136.891 29.0355 136.814 29.1254C136.737 29.2153 136.645 29.2874 136.542 29.3376L134.603 30.2237L134.568 28.4724C134.81 28.5504 135.059 28.5979 135.311 28.6141C135.579 28.6441 135.85 28.6313 136.115 28.5762C136.369 28.5391 136.619 28.4712 136.859 28.3737C137.014 28.3109 137.165 28.2393 137.312 28.1594C137.366 28.1303 137.419 28.1001 137.472 28.0689C137.468 28.0711 137.694 27.9244 137.595 27.9933C137.846 27.8144 138.081 27.6098 138.298 27.3821C138.375 27.3014 138.445 27.2138 138.509 27.1202C138.619 26.9687 138.722 26.8101 138.816 26.6453C139.007 26.2962 139.158 25.9219 139.266 25.5311C139.316 25.3668 139.357 25.1998 139.391 25.0307C139.4 24.9378 139.415 24.8459 139.436 24.7553C139.508 24.5396 139.422 24.8813 139.505 24.9748L139.863 25.2688C139.93 25.2911 140.001 25.2963 140.07 25.2839C140.139 25.2716 140.205 25.242 140.262 25.1974C140.305 25.1309 140.296 25.1419 140.235 25.2305C140.164 25.3348 140.099 25.4439 140.041 25.5574C139.912 25.8244 139.796 26.0985 139.693 26.3787C139.48 26.9745 139.21 27.5432 138.888 28.075C138.573 28.613 138.114 29.0262 137.576 29.2558C137.038 29.4853 136.449 29.5195 135.892 29.3534C135.684 29.2607 135.516 29.08 135.425 28.8504C135.335 28.6209 135.329 28.3608 135.409 28.1263C135.494 27.8952 135.656 27.7099 135.861 27.6093C136.066 27.5086 136.298 27.5004 136.508 27.5863Z" fill="#2A2962"/>
</g>
<defs>
<clipPath id="clip0_131_46">
<rect width="489" height="373" fill="white"/>
</clipPath>
</defs>
</svg>
